<svg width="51" height="50" viewBox="0 0 51 50" fill="none" xmlns="http://www.w3.org/2000/svg">
<path d="M20.5 35C21.2083 35 21.8025 34.76 22.2825 34.28C22.7608 33.8017 23 33.2083 23 32.5V17.4375C23 16.7292 22.7608 16.1458 22.2825 15.6875C21.8025 15.2292 21.2083 15 20.5 15C19.7917 15 19.1983 15.2392 18.72 15.7175C18.24 16.1975 18 16.7917 18 17.5V32.5625C18 33.2708 18.24 33.8542 18.72 34.3125C19.1983 34.7708 19.7917 35 20.5 35ZM30.5 35C31.2083 35 31.8025 34.76 32.2825 34.28C32.7608 33.8017 33 33.2083 33 32.5V17.4375C33 16.7292 32.7608 16.1458 32.2825 15.6875C31.8025 15.2292 31.2083 15 30.5 15C29.7917 15 29.1983 15.2392 28.72 15.7175C28.24 16.1975 28 16.7917 28 17.5V32.5625C28 33.2708 28.24 33.8542 28.72 34.3125C29.1983 34.7708 29.7917 35 30.5 35ZM25.5 50C22.0417 50 18.7917 49.3433 15.75 48.03C12.7083 46.7183 10.0625 44.9375 7.8125 42.6875C5.5625 40.4375 3.78167 37.7917 2.47 34.75C1.15667 31.7083 0.5 28.4583 0.5 25C0.5 21.5417 1.15667 18.2917 2.47 15.25C3.78167 12.2083 5.5625 9.5625 7.8125 7.3125C10.0625 5.0625 12.7083 3.28083 15.75 1.9675C18.7917 0.655833 22.0417 0 25.5 0C28.9583 0 32.2083 0.655833 35.25 1.9675C38.2917 3.28083 40.9375 5.0625 43.1875 7.3125C45.4375 9.5625 47.2183 12.2083 48.53 15.25C49.8433 18.2917 50.5 21.5417 50.5 25C50.5 28.4583 49.8433 31.7083 48.53 34.75C47.2183 37.7917 45.4375 40.4375 43.1875 42.6875C40.9375 44.9375 38.2917 46.7183 35.25 48.03C32.2083 49.3433 28.9583 50 25.5 50ZM25.5 45C31.0417 45 35.7608 43.0525 39.6575 39.1575C43.5525 35.2608 45.5 30.5417 45.5 25C45.5 19.4583 43.5525 14.7392 39.6575 10.8425C35.7608 6.9475 31.0417 5 25.5 5C19.9583 5 15.24 6.9475 11.345 10.8425C7.44833 14.7392 5.5 19.4583 5.5 25C5.5 30.5417 7.44833 35.2608 11.345 39.1575C15.24 43.0525 19.9583 45 25.5 45Z" fill="#FFE3B3"/>
</svg>
