<svg width="51" height="50" viewBox="0 0 51 50" fill="none" xmlns="http://www.w3.org/2000/svg">
<path d="M19.25 18.3125V31.6875C19.25 32.6875 19.6875 33.4167 20.5625 33.875C21.4375 34.3333 22.2917 34.2917 23.125 33.75L33.5 27.125C34.2917 26.6667 34.6875 25.9583 34.6875 25C34.6875 24.0417 34.2917 23.3333 33.5 22.875L23.125 16.25C22.2917 15.7083 21.4375 15.6667 20.5625 16.125C19.6875 16.5833 19.25 17.3125 19.25 18.3125ZM25.5 50C22.0417 50 18.7917 49.3433 15.75 48.03C12.7083 46.7183 10.0625 44.9375 7.8125 42.6875C5.5625 40.4375 3.78167 37.7917 2.47 34.75C1.15667 31.7083 0.5 28.4583 0.5 25C0.5 21.5417 1.15667 18.2917 2.47 15.25C3.78167 12.2083 5.5625 9.5625 7.8125 7.3125C10.0625 5.0625 12.7083 3.28083 15.75 1.9675C18.7917 0.655833 22.0417 0 25.5 0C28.9583 0 32.2083 0.655833 35.25 1.9675C38.2917 3.28083 40.9375 5.0625 43.1875 7.3125C45.4375 9.5625 47.2183 12.2083 48.53 15.25C49.8433 18.2917 50.5 21.5417 50.5 25C50.5 28.4583 49.8433 31.7083 48.53 34.75C47.2183 37.7917 45.4375 40.4375 43.1875 42.6875C40.9375 44.9375 38.2917 46.7183 35.25 48.03C32.2083 49.3433 28.9583 50 25.5 50ZM25.5 45C31.0417 45 35.7608 43.0525 39.6575 39.1575C43.5525 35.2608 45.5 30.5417 45.5 25C45.5 19.4583 43.5525 14.7392 39.6575 10.8425C35.7608 6.9475 31.0417 5 25.5 5C19.9583 5 15.24 6.9475 11.345 10.8425C7.44833 14.7392 5.5 19.4583 5.5 25C5.5 30.5417 7.44833 35.2608 11.345 39.1575C15.24 43.0525 19.9583 45 25.5 45Z" fill="#FFE3B3"/>
</svg>
