<svg width="46" height="26" viewBox="0 0 46 26" fill="none" xmlns="http://www.w3.org/2000/svg">
<path d="M41.625 25.4177L26.125 15.0427C25.375 14.5427 25 13.8552 25 12.9802C25 12.1052 25.375 11.4177 26.125 10.9177L41.625 0.54265C42.4583 0.000983678 43.3125 -0.0306833 44.1875 0.44765C45.0625 0.92765 45.5 1.66765 45.5 2.66765V23.2927C45.5 24.2927 45.0625 25.0427 44.1875 25.5427C43.3125 26.0427 42.4583 26.001 41.625 25.4177ZM16.625 25.4177L1.125 15.0427C0.375 14.5427 0 13.8552 0 12.9802C0 12.1052 0.375 11.4177 1.125 10.9177L16.625 0.54265C17.4583 0.000983678 18.3125 -0.0306833 19.1875 0.44765C20.0625 0.92765 20.5 1.66765 20.5 2.66765V23.2927C20.5 24.2927 20.0625 25.0427 19.1875 25.5427C18.3125 26.0427 17.4583 26.001 16.625 25.4177Z" fill="#FFE3B3"/>
</svg>
