<svg width="46" height="26" viewBox="0 0 46 26" fill="none" xmlns="http://www.w3.org/2000/svg">
<path d="M4.375 25.4177L19.875 15.0427C20.625 14.5427 21 13.8552 21 12.9802C21 12.1052 20.625 11.4177 19.875 10.9177L4.375 0.54265C3.54167 0.000983678 2.6875 -0.0306833 1.8125 0.44765C0.937504 0.92765 0.500004 1.66765 0.500004 2.66765V23.2927C0.500004 24.2927 0.937504 25.0427 1.8125 25.5427C2.6875 26.0427 3.54167 26.001 4.375 25.4177ZM29.375 25.4177L44.875 15.0427C45.625 14.5427 46 13.8552 46 12.9802C46 12.1052 45.625 11.4177 44.875 10.9177L29.375 0.54265C28.5417 0.000983678 27.6875 -0.0306833 26.8125 0.44765C25.9375 0.92765 25.5 1.66765 25.5 2.66765V23.2927C25.5 24.2927 25.9375 25.0427 26.8125 25.5427C27.6875 26.0427 28.5417 26.001 29.375 25.4177Z" fill="#FFE3B3"/>
</svg>
